<svg id="Layer_1" enable-background="new 0 0 512 512" height="512" viewBox="0 0 512 512" width="512" xmlns="http://www.w3.org/2000/svg"><g><path d="m433.534 435.836c41.807-43.946 67.468-103.395 67.468-168.839 0-135.311-109.691-245.003-245.002-245.003s-245.002 109.691-245.002 245.003c0 65.444 25.662 124.893 67.469 168.839z" fill="#73c3f9"/><path d="m117.502 469.09h69.641c-.047-.61-.079-1.223-.079-1.845v-298.847c0-13.103 10.66-23.762 23.763-23.762h189.378v-96.208c0-26.704-21.724-48.428-48.427-48.428h-225.815c-26.703 0-48.428 21.724-48.428 48.428v386.409c12.036 12.793 25.442 24.278 39.967 34.253z" fill="#167cc1"/><path d="m199.691 0h-73.729c-26.702 0-48.427 21.724-48.427 48.428v386.409c12.036 12.793 25.442 24.278 39.966 34.253h69.641c-.047-.61-.079-1.223-.079-1.845v-298.847c0-9.512 5.621-17.732 13.713-21.525v-81.88c0-1.018-.442-1.983-1.189-2.676-6.54-6.063-3.74-11.079-1.209-13.713 1.098-1.143 1.431-2.868.656-4.25-2.142-3.823-.175-7.258 1.004-8.796.481-.628.738-1.395.738-2.187v-13.733c0-1.031-.457-1.997-1.212-2.7-6.156-5.726-3.011-11.814-.633-14.895.469-.606.717-1.32.76-2.043z" fill="#024788"/><path d="m107.665 461.988c41.176 31.372 92.575 50.012 148.335 50.012 35.367 0 68.976-7.506 99.341-20.992h-144.513c-13.103 0-23.763-10.66-23.763-23.763v-298.847c0-13.103 10.66-23.762 23.763-23.762h159.248v-22.863h-262.411z" fill="#e9efff"/><path d="m107.665 461.988c27.152 20.687 58.75 35.833 93.112 43.754v-16.972c-8.093-3.793-13.713-12.014-13.713-21.526v-298.846c0-9.512 5.621-17.732 13.713-21.525v-25.1h-93.112z" fill="#d3dcfb"/><path d="m351.778 30.13h-33.939c-6.327 0-11.456 5.129-11.456 11.456 0 7.365-6.026 13.391-13.391 13.391h-108.243c-7.365 0-13.391-6.026-13.391-13.391 0-6.327-5.129-11.456-11.456-11.456h-33.939c-10.106 0-18.298 8.192-18.298 18.298v76.312h262.411v-76.312c0-10.106-8.192-18.298-18.298-18.298z" fill="#9bd8f9"/><path d="m200.777 64.993c0-1.018-.442-1.983-1.189-2.676-2.905-2.693-3.961-5.178-4.023-7.341h-10.816c-7.365 0-13.391-6.026-13.391-13.391 0-6.327-5.129-11.456-11.455-11.456h-33.94c-10.105 0-18.297 8.192-18.297 18.298v76.312h93.112v-59.746z" fill="#73c3f9"/><g><path d="m116.034 468.09v-419.663c0-5.474 4.454-9.928 9.928-9.928h33.939c1.702 0 3.086 1.384 3.086 3.086 0 11.998 9.761 21.76 21.76 21.76h108.244c11.999 0 21.76-9.762 21.76-21.76 0-1.702 1.385-3.086 3.086-3.086h33.938c5.475 0 9.929 4.454 9.929 9.928v104.02c0 4.622 3.747 8.369 8.369 8.369s8.369-3.747 8.369-8.369l.001-104.02c0-14.704-11.963-26.666-26.668-26.666h-33.938c-10.931 0-19.825 8.893-19.825 19.825 0 2.722-2.299 5.022-5.022 5.022h-108.241c-2.722 0-5.022-2.299-5.022-5.022 0-10.931-8.894-19.825-19.825-19.825h-33.939c-14.704 0-26.667 11.962-26.667 26.666l-.001 406.899c5.388 4.488 10.975 8.744 16.739 12.764z" fill="#1e92d3"/></g><path d="m199.4 46.607h-14.652c-2.722 0-5.021-2.299-5.021-5.022 0-10.931-8.893-19.825-19.825-19.825h-33.939c-14.704 0-26.667 11.962-26.667 26.666l-.001 406.899c5.388 4.488 10.974 8.744 16.739 12.764l.001-419.663c0-5.474 4.454-9.928 9.928-9.928h33.939c1.702 0 3.086 1.384 3.086 3.086 0 11.998 9.762 21.76 21.76 21.76h15.606c-.197-.379-.447-.732-.767-1.029-6.54-6.063-3.74-11.079-1.209-13.713.541-.56.893-1.262 1.022-1.995z" fill="#167cc1"/><path d="m297.48 79.613h-101.873v29.333h101.873c8.1 0 14.666-6.566 14.666-14.666s-6.565-14.667-14.666-14.667z" fill="#e9efff"/><path d="m232.456 94.279c0-8.1 6.566-14.666 14.666-14.666h-51.516v29.333h51.516c-8.1-.001-14.666-6.567-14.666-14.667z" fill="#d3dcfb"/><path d="m196.723 79.613h-16.462c-8.1 0-14.666 6.566-14.666 14.666s6.566 14.666 14.666 14.666h16.462z" fill="#3c58a0"/><g><path d="m203.195 34.704h-4.836c-4.622 0-8.369-3.747-8.369-8.369s3.747-8.369 8.369-8.369h4.836c4.622 0 8.369 3.747 8.369 8.369s-3.747 8.369-8.369 8.369z" fill="#1e92d3"/></g><g><path d="m278.224 34.704h-46.464c-4.622 0-8.369-3.747-8.369-8.369s3.747-8.369 8.369-8.369h46.464c4.622 0 8.369 3.747 8.369 8.369s-3.747 8.369-8.369 8.369z" fill="#1e92d3"/></g><g><path d="m146.715 61.453h-11.531c-4.622 0-8.369-3.747-8.369-8.369 0-4.623 3.747-8.369 8.369-8.369h11.531c4.622 0 8.369 3.747 8.369 8.369s-3.747 8.369-8.369 8.369z" fill="#e9efff"/></g><g><path d="m342.557 61.453h-11.531c-4.622 0-8.369-3.747-8.369-8.369 0-4.623 3.747-8.369 8.369-8.369h11.531c4.622 0 8.369 3.747 8.369 8.369.001 4.622-3.746 8.369-8.369 8.369z" fill="#e9efff"/></g><path d="m427.637 441.808h-216.81c-13.99 0-25.436 11.447-25.436 25.437s11.446 25.437 25.437 25.437h140.687c28.552-12.1 54.324-29.469 76.122-50.874z" fill="#ff9100"/><path d="m402.966 460.916c0 .68.058 1.349.143 2.012 4.421-3.325 8.728-6.794 12.91-10.404v-9.219c-7.79 3.552-13.053 10.125-13.053 17.611z" fill="#bec8f7"/><path d="m185.689 463.366c1.882 9.451 12.467 16.746 25.139 16.746h166.101c9.107-5.178 17.85-10.92 26.18-17.184-.085-.663-.143-1.332-.143-2.012 0-8.717 7.133-16.197 17.086-19.108h-209.225c-12.672.001-23.256 9.392-25.138 21.558z" fill="#e9efff"/><path d="m284.333 441.809h-73.505c-12.672 0-23.257 9.391-25.139 21.558 1.882 9.451 12.467 16.746 25.139 16.746h73.59c-17.888-5.316-18.36-32.993-.085-38.304z" fill="#d3dcfb"/><path d="m434.465 434.837v-285.199c0-3.672-3.004-6.676-6.676-6.676h-216.962c-13.99 0-25.437 11.447-25.437 25.437v298.846h.044c.758-13.322 11.889-23.987 25.392-23.987h215.325c2.839-2.74 5.61-5.548 8.314-8.421z" fill="#ffb332"/><path d="m185.391 168.399v298.846h.044c.758-13.322 11.889-23.987 25.392-23.987h69.853c-16.9-7.85-15.91-28.638-15.91-28.638s0-93 0-121.51 8.742-45.813 8.742-45.813v-34.225c-24.428-37.049 10.095-70.11 10.095-70.11h-72.78c-13.99 0-25.436 11.447-25.436 25.437z" fill="#ff9100"/><path d="m212.882 142.962h19.574v300.296h-19.574z" fill="#ffb332"/><path d="m391.078 213.072h-117.566c-3.677 0-6.658 2.981-6.658 6.658v20.909c0 3.677 2.981 6.658 6.658 6.658h117.566c3.677 0 6.658-2.981 6.658-6.658v-20.909c0-3.677-2.981-6.658-6.658-6.658z" fill="#ffdd40"/><g><path d="m397.736 192.525h-19.524c-4.622 0-8.369-3.747-8.369-8.369 0-4.623 3.747-8.369 8.369-8.369h19.524c4.622 0 8.369 3.747 8.369 8.369 0 4.623-3.747 8.369-8.369 8.369z" fill="#e9efff"/></g></g></svg>