<svg height="480pt" viewBox="0 0 480 480" width="480pt" xmlns="http://www.w3.org/2000/svg" xmlns:xlink="http://www.w3.org/1999/xlink"><linearGradient id="a"><stop offset="0" stop-color="#20d6de"/><stop offset="1" stop-color="#5e309d"/></linearGradient><linearGradient id="b" gradientUnits="userSpaceOnUse" x1="-16" x2="472.592" xlink:href="#a" y1="248" y2="248"/><linearGradient id="c" gradientUnits="userSpaceOnUse" x1="-16" x2="472.592" xlink:href="#a" y1="152" y2="152"/><linearGradient id="d" gradientUnits="userSpaceOnUse" x1="-16" x2="472.592" xlink:href="#a" y1="424" y2="424"/><linearGradient id="e" gradientUnits="userSpaceOnUse" x1="-16" x2="472.592" xlink:href="#a" y1="240" y2="240"/><path d="m448 48c-17.671875 0-32 14.328125-32 32v296c.082031.953125.25 1.894531.503906 2.816406l24 64c1.167969 3.128906 4.15625 5.203125 7.496094 5.203125s6.328125-2.074219 7.496094-5.203125l24-64c.253906-.921875.421875-1.863281.503906-2.816406v-296c0-17.671875-14.328125-32-32-32zm-16 64h32v256h-32zm0-32c0-8.835938 7.164062-16 16-16s16 7.164062 16 16v16h-32zm16 337.214844-12.457031-33.214844h24.914062zm0 0" fill="url(#b)"/><path d="m128 208h192c4.417969 0 8-3.582031 8-8v-96c0-4.417969-3.582031-8-8-8h-192c-4.417969 0-8 3.582031-8 8v96c0 4.417969 3.582031 8 8 8zm8-96h176v80h-176zm0 0" fill="url(#c)"/><path d="m312 432v16h56v-48h-16v32zm0 0" fill="url(#d)"/><path d="m392 0h-352c-4.417969 0-8 3.582031-8 8v48h-8c-13.253906 0-24 10.746094-24 24s10.746094 24 24 24h8v32h-8c-13.253906 0-24 10.746094-24 24s10.746094 24 24 24h8v32h-8c-13.253906 0-24 10.746094-24 24s10.746094 24 24 24h8v32h-8c-13.253906 0-24 10.746094-24 24s10.746094 24 24 24h8v32h-8c-13.253906 0-24 10.746094-24 24s10.746094 24 24 24h8v48c0 4.417969 3.582031 8 8 8h352c4.417969 0 8-3.582031 8-8v-464c0-4.417969-3.582031-8-8-8zm-376 80c0-4.417969 3.582031-8 8-8h40v16h-40c-4.417969 0-8-3.582031-8-8zm0 80c0-4.417969 3.582031-8 8-8h40v16h-40c-4.417969 0-8-3.582031-8-8zm0 80c0-4.417969 3.582031-8 8-8h40v16h-40c-4.417969 0-8-3.582031-8-8zm0 80c0-4.417969 3.582031-8 8-8h40v16h-40c-4.417969 0-8-3.582031-8-8zm0 80c0-4.417969 3.582031-8 8-8h40v16h-40c-4.417969 0-8-3.582031-8-8zm368 64h-336v-40h24c4.417969 0 8-3.582031 8-8v-32c0-4.417969-3.582031-8-8-8h-24v-32h24c4.417969 0 8-3.582031 8-8v-32c0-4.417969-3.582031-8-8-8h-24v-32h24c4.417969 0 8-3.582031 8-8v-32c0-4.417969-3.582031-8-8-8h-24v-32h24c4.417969 0 8-3.582031 8-8v-32c0-4.417969-3.582031-8-8-8h-24v-32h24c4.417969 0 8-3.582031 8-8v-32c0-4.417969-3.582031-8-8-8h-24v-40h336zm0 0" fill="url(#e)"/></svg>