<svg height="512" viewBox="0 0 512 512" width="512" xmlns="http://www.w3.org/2000/svg"><g><g fill="#57a4ff"><path d="m104 184v198.4l72-86.4 31.92 38.31 90.08-118.31 110 144.48v-176.48zm72 88a24 24 0 1 1 24-24 24.006 24.006 0 0 1 -24 24z"/><path d="m432 96h-80v-80z"/><path d="m432 96h-80v-80z"/><path d="m104 184v198.4l72-86.4 31.92 38.31 90.08-118.31 110 144.48v-176.48zm72 88a24 24 0 1 1 24-24 24.006 24.006 0 0 1 -24 24z"/></g><g fill="#004fac"><path d="m437.66 90.34-80-80a8.008 8.008 0 0 0 -5.66-2.34h-272a8 8 0 0 0 -8 8v480a8 8 0 0 0 8 8h352a8 8 0 0 0 8-8v-400a8.008 8.008 0 0 0 -2.34-5.66zm-77.66-55.03 52.69 52.69h-52.69zm64 452.69h-336v-464h256v72a8 8 0 0 0 8 8h72z"/><path d="m376 464h-88a8 8 0 0 0 0 16h88a8 8 0 0 0 0-16z"/><path d="m408 464h-8a8 8 0 0 0 0 16h8a8 8 0 0 0 0-16z"/><path d="m112 56h72a8 8 0 0 0 0-16h-72a8 8 0 0 0 0 16z"/><path d="m112 80h24a8 8 0 0 0 0-16h-24a8 8 0 0 0 0 16z"/><path d="m408 176h-304a8 8 0 0 0 -8 8v208a8 8 0 0 0 8 8h304a8 8 0 0 0 8-8v-208a8 8 0 0 0 -8-8zm-294.92 208 62.92-75.5 25.82 30.98a1.059 1.059 0 0 0 .1.12l37 44.4zm286.92 0h-140.25l-41.6-49.92 79.85-104.87 102 133.97zm0-47.23-95.63-125.62a8.016 8.016 0 0 0 -12.74 0l-83.99 110.32-25.49-30.59a8.006 8.006 0 0 0 -12.3 0l-57.85 69.42v-168.3h288z"/><path d="m176 280a32 32 0 1 0 -32-32 32.036 32.036 0 0 0 32 32zm0-48a16 16 0 1 1 -16 16 16.019 16.019 0 0 1 16-16z"/></g></g></svg>