<svg id="Layer_1" enable-background="new 0 0 512 512" height="512" viewBox="0 0 512 512" width="512" xmlns="http://www.w3.org/2000/svg"><g><path d="m245.002 21.995c-135.311 0-245.002 109.692-245.002 245.003 0 58.16 20.279 111.575 54.134 153.593l47.719 45.245c40.27 29.041 89.707 46.164 143.149 46.164 135.311 0 245.002-109.691 245.002-245.002s-109.69-245.003-245.002-245.003z" fill="#1c2e7a"/><circle cx="308.764" cy="212.442" fill="#9bd8f9" r="203.236"/><path d="m442.047 328.584c-.017-2.735-2.069-5.035-4.769-5.466-13.367-2.132-14.922-12.479-14.79-17.894.051-2.113-1.038-4.087-2.88-5.124l-135.806-76.443c-1.782-1.003-2.884-2.889-2.884-4.933v-207.601c-42.382 5.83-83.279 25.025-115.862 57.609-79.369 79.369-79.369 208.051 0 287.419s208.05 79.368 287.419 0c2.84-2.84 5.566-5.749 8.202-8.711-.651-.421-1.398-.716-2.217-.838-14.035-2.099-16.375-11.877-16.413-18.018z" fill="#73c3f9"/><g><path d="m185.972 335.235c-67.708-67.708-67.708-177.877 0-245.586 67.862-67.864 177.712-67.874 245.586 0 67.708 67.708 67.708 177.877 0 245.586-67.863 67.862-177.713 67.875-245.586 0z" fill="#73c3f9"/></g><path d="m437.278 323.118c-13.367-2.132-14.922-12.479-14.79-17.894.051-2.113-1.038-4.087-2.88-5.124l-135.806-76.443c-1.782-1.003-2.884-2.889-2.884-4.933v-177.729c-34.751 5.623-68.127 21.835-94.945 48.654-67.708 67.708-67.708 177.877 0 245.586 67.873 67.875 177.723 67.862 245.585 0 3.248-3.248 6.337-6.595 9.273-10.029-.862-1.081-2.108-1.857-3.553-2.088z" fill="#4fabf7"/><path d="m206.275 109.952c-56.513 56.513-56.513 148.467 0 204.98 56.64 56.642 148.328 56.652 204.98 0 56.513-56.513 56.513-148.466 0-204.98-56.645-56.643-148.33-56.652-204.98 0z" fill="#4fabf7"/><path d="m206.275 109.952c-56.513 56.513-56.513 148.467 0 204.98 56.64 56.642 148.328 56.652 204.979 0 3.864-3.864 7.454-7.898 10.789-12.071-.476-1.147-1.314-2.129-2.436-2.76l-135.806-76.443c-1.782-1.003-2.884-2.889-2.884-4.933v-148.568c-27.339 5.333-53.444 18.596-74.642 39.795z" fill="#1e9ef4"/><path d="m131.28 389.926c-5.869-5.869-13.407-9.022-21.086-9.524l41.068-41.069c8.453-8.453 22.157-8.453 30.61 0s8.453 22.157 0 30.61l-41.069 41.069c-.5-7.679-3.654-15.217-9.523-21.086z" fill="#e9efff"/><path d="m206.275 314.932c56.64 56.642 148.328 56.652 204.98 0 4.16-4.159 8.012-8.511 11.559-13.027v-222.161c-5.845-20.97-31.027-21.456-31.323-21.459h-18.228c-4.816 0-8.734-3.918-8.734-8.734v-18.228c0-21.674-15.3-28.91-25.062-31.323h-134.811c-5.49 0-9.94 4.451-9.94 9.94v291.965c3.546 4.515 7.399 8.867 11.559 13.027z" fill="#ffdd40"/><path d="m246.002 342.314v-290.689c0-23.398 14.454-43.409 34.915-51.625h-76.261c-5.49 0-9.94 4.45-9.94 9.94v291.965c3.547 4.515 7.4 8.867 11.559 13.027 11.915 11.915 25.384 21.314 39.748 28.217-.006-.279-.021-.556-.021-.835z" fill="#ffb332"/><path d="m87.066 387.659-32.932 32.932c13.801 17.128 29.855 32.361 47.719 45.245l31.695-31.695c12.836-12.836 12.836-33.646 0-46.482s-33.647-12.836-46.482 0z" fill="#ff4155"/><path d="m88.186 436.01c-12.809-12.008-14.399-29.534-6.782-42.689l-27.27 27.27c13.8 17.128 29.855 32.361 47.719 45.245l23.555-23.556c-12.2 5.401-26.934 3.375-37.222-6.27z" fill="#e80054"/><g><path d="m336.84 121.869h-56.151c-5.873 0-10.634-4.762-10.634-10.634 0-5.873 4.761-10.635 10.634-10.635h56.151c5.873 0 10.634 4.762 10.634 10.635s-4.761 10.634-10.634 10.634z" fill="#fcf2c8"/></g><g><path d="m376.668 156.13h-135.807c-4.405 0-7.976-3.57-7.976-7.976 0-4.405 3.571-7.976 7.976-7.976h135.807c4.405 0 7.976 3.57 7.976 7.976s-3.571 7.976-7.976 7.976z" fill="#ff9100"/></g><g><path d="m376.668 187.712h-135.807c-4.405 0-7.976-3.57-7.976-7.976 0-4.405 3.571-7.976 7.976-7.976h135.807c4.405 0 7.976 3.57 7.976 7.976s-3.571 7.976-7.976 7.976z" fill="#ff9100"/></g><g><path d="m376.668 219.294h-135.807c-4.405 0-7.976-3.57-7.976-7.976s3.571-7.976 7.976-7.976h135.807c4.405 0 7.976 3.57 7.976 7.976 0 4.405-3.571 7.976-7.976 7.976z" fill="#ff9100"/></g><g><path d="m376.668 250.875h-135.807c-4.405 0-7.976-3.57-7.976-7.976s3.571-7.976 7.976-7.976h135.807c4.405 0 7.976 3.57 7.976 7.976s-3.571 7.976-7.976 7.976z" fill="#ff9100"/></g><g><path d="m376.668 282.458h-135.807c-4.405 0-7.976-3.57-7.976-7.976 0-4.405 3.571-7.976 7.976-7.976h135.807c4.405 0 7.976 3.57 7.976 7.976 0 4.405-3.571 7.976-7.976 7.976z" fill="#ff9100"/></g><path d="m412.557 49.235-38.979-38.978c-6.567-6.568-15.474-10.257-24.761-10.257h-17.299s31.804.484 31.804 31.323v18.228c0 5.49 4.451 9.94 9.94 9.94h18.228s31.323.257 31.323 29.617v-15.111c.001-9.288-3.689-18.195-10.256-24.762z" fill="#ffb332"/><path d="m348.817 0h-17.299s31.805.484 31.805 31.323v18.228c0 5.49 4.45 9.94 9.94 9.94h11.382c-9.486-24.1 11.378-26.792 11.378-26.792l-22.444-22.443c-6.568-6.566-15.475-10.256-24.762-10.256z" fill="#ff9100"/></g></svg>