<?xml version="1.0"?>
<svg xmlns="http://www.w3.org/2000/svg" xmlns:xlink="http://www.w3.org/1999/xlink" viewBox="0 0 512 512" width="512" height="512"><defs><linearGradient id="linear-gradient" x1="81.006" y1="524.32" x2="431.584" y2="173.742" gradientUnits="userSpaceOnUse"><stop offset="0" stop-color="#41dfd0"/><stop offset="1" stop-color="#ee83ef"/></linearGradient></defs><g id="gradient"><path d="M200.911,362.331,81.047,413.593a45.257,45.257,0,0,0-27.576,35.543l-5.39,37.733A8,8,0,0,0,56,496H456a8,8,0,0,0,7.919-9.131l-5.39-37.733a45.254,45.254,0,0,0-27.576-35.543L309.931,361.836A147.6,147.6,0,0,1,303.5,318.7c0-.153-.015-.3-.023-.454A72.556,72.556,0,0,0,316.035,304h3.435a57.346,57.346,0,0,0,56.819-65.092l-2.475-18.15a29.1,29.1,0,0,0,1.682-9.7V196.944a28.832,28.832,0,0,0-7.591-19.516l-7.978-58.509a7.885,7.885,0,0,0-.2-.974l-2.006-7.55a54.732,54.732,0,0,0-32.553-36.829A65.126,65.126,0,0,0,268.446,40h-6.339q-1.55,0-3.094.041c-48.678,1.27-91.2,33.915-105.813,81.232a52.312,52.312,0,0,0-2.1,10.531l-7.071,75.472-3.108,34.188a57.327,57.327,0,0,0,54.554,62.469,72.558,72.558,0,0,0,12.075,13.841,7.89,7.89,0,0,0-.058.928A147.584,147.584,0,0,1,200.911,362.331Zm-54.568,59.326L162.5,437.809l-6.073,3.036a8,8,0,0,0-4.267,8.724L158.242,480H112V456a8,8,0,0,0-16,0v24H65.224l4.086-28.6A29.26,29.26,0,0,1,87.338,428.3l75.869-32.447-16.414,14.069a8,8,0,0,0-.45,11.731ZM200,480H174.559l-5.516-27.577,10.535-5.268a8,8,0,0,0,2.079-12.812l-17.891-17.891L200,385.394Zm224.661-51.7A29.259,29.259,0,0,1,442.69,451.4l4.086,28.6H416V456a8,8,0,0,0-16,0v24H353.759l6.086-30.431a8,8,0,0,0-4.267-8.724l-6.073-3.036,16.152-16.152a8,8,0,0,0-.45-11.731l-16.413-14.068ZM312,404.657V385.394l36.234,31.058-17.891,17.891a8,8,0,0,0,2.079,12.812l10.535,5.268L337.441,480H312ZM296,480H216V414.831a177.871,177.871,0,0,0,80-.01Zm0-81.618a162.67,162.67,0,0,1-80-.02V368.007c0-.094-.008-.189-.011-.283a163.465,163.465,0,0,0,7.221-39.37,73.3,73.3,0,0,0,64.587.3,163.568,163.568,0,0,0,8.109,41.879c.026.077.066.144.094.22Zm63.851-161.6.585,4.285a41.322,41.322,0,0,1-35.809,46.6A218.277,218.277,0,0,0,339.578,240h6.973A28.942,28.942,0,0,0,359.851,236.785Zm-.355-39.841v14.112a13.012,13.012,0,0,1-1.367,5.789A12.875,12.875,0,0,1,346.551,224h-4.493a215.262,215.262,0,0,0,1.438-24.782V184h3.055A12.959,12.959,0,0,1,359.5,196.944ZM167.5,274.536a40.89,40.89,0,0,1-10.645-31.623l3.106-34.167,7.069-75.449a36.26,36.26,0,0,1,1.454-7.3c12.585-40.754,49.132-68.868,90.941-69.959Q260.765,56,262.107,56h6.339A49,49,0,0,1,312.3,83.487a8,8,0,0,0,4.671,4.1,38.8,38.8,0,0,1,25.3,26.916l1.879,7.069,6.368,46.7a29.026,29.026,0,0,0-3.958-.278h-6.282L295.04,84.2a8,8,0,0,0-14.885,2.231,72.232,72.232,0,0,1-40.563,51.325l-35.233,16.183a59.31,59.31,0,0,0-34.273,61.154c3.359,27.892,9.227,53.139,16.46,71.3A40.935,40.935,0,0,1,167.5,274.536ZM205.171,288.9c-8.406-16.6-15.4-44.2-19.2-75.721a43.36,43.36,0,0,1,25.066-44.7L246.271,152.3a88.321,88.321,0,0,0,43.582-44.02L327.5,178.021v21.2A202.092,202.092,0,0,1,306.727,288.2l-.093.188a56.72,56.72,0,0,1-101.463.512ZM271.906,173.47a8,8,0,0,1,10.119-5.059l24,8a8,8,0,1,1-5.059,15.178l-24-8A8,8,0,0,1,271.906,173.47ZM300.5,202a11,11,0,1,1-11-11A11,11,0,0,1,300.5,202Zm-89.917-10.427a8,8,0,1,1-5.158-15.146l23.5-8a8,8,0,1,1,5.157,15.146ZM221.5,213a11,11,0,1,1,11-11A11,11,0,0,1,221.5,213Zm12.847,46.716a8,8,0,0,1,11.314,0,14.644,14.644,0,0,0,20.686,0,8,8,0,0,1,11.314,11.313,30.661,30.661,0,0,1-43.314,0A8,8,0,0,1,234.343,259.716ZM240,240V224a8,8,0,0,1,16,0v8h8a8,8,0,0,1,0,16H248A8,8,0,0,1,240,240Z" style="fill:url(#linear-gradient)"/></g></svg>
